<svg width="48" height="48" viewBox="0 0 48 48" fill="none" xmlns="http://www.w3.org/2000/svg">
<rect width="48" height="48" fill="white"/>
<path d="M43.5 29C43.5 30.3807 42.3807 31.5 41 31.5L6 31.5C4.61929 31.5 3.5 30.3807 3.5 29V10C3.5 8.61929 4.61929 7.5 6 7.5L41 7.5C42.3807 7.5 43.5 8.61929 43.5 10V29Z" stroke="#152C5B" stroke-width="3"/>
<line x1="17.5" y1="41.5" x2="17.5" y2="33.5" stroke="#152C5B" stroke-width="3" stroke-linecap="round"/>
<line x1="17.5" y1="41.5" x2="17.5" y2="33.5" stroke="#152C5B" stroke-width="3" stroke-linecap="round"/>
<line x1="17.5" y1="41.5" x2="17.5" y2="33.5" stroke="#152C5B" stroke-width="3" stroke-linecap="round"/>
<line x1="17.5" y1="41.5" x2="17.5" y2="33.5" stroke="#152C5B" stroke-width="3" stroke-linecap="round"/>
<line x1="34.5" y1="42.5" x2="13.5" y2="42.5" stroke="#152C5B" stroke-width="3" stroke-linecap="round"/>
<line x1="34.5" y1="42.5" x2="13.5" y2="42.5" stroke="#152C5B" stroke-width="3" stroke-linecap="round"/>
<line x1="34.5" y1="42.5" x2="13.5" y2="42.5" stroke="#152C5B" stroke-width="3" stroke-linecap="round"/>
<line x1="34.5" y1="42.5" x2="13.5" y2="42.5" stroke="#152C5B" stroke-width="3" stroke-linecap="round"/>
<line x1="30.5" y1="41.5" x2="30.5" y2="33.5" stroke="#152C5B" stroke-width="3" stroke-linecap="round"/>
<line x1="30.5" y1="41.5" x2="30.5" y2="33.5" stroke="#152C5B" stroke-width="3" stroke-linecap="round"/>
<line x1="30.5" y1="41.5" x2="30.5" y2="33.5" stroke="#152C5B" stroke-width="3" stroke-linecap="round"/>
<line x1="30.5" y1="41.5" x2="30.5" y2="33.5" stroke="#152C5B" stroke-width="3" stroke-linecap="round"/>
<path d="M31 19L20.5 12.9378L20.5 25.0622L31 19Z" fill="#FF498B"/>
</svg>
