<svg width="48" height="48" viewBox="0 0 48 48" fill="none" xmlns="http://www.w3.org/2000/svg">
<rect width="48" height="48" fill="white"/>
<path d="M17 42.5C15.6193 42.5 14.5 41.3807 14.5 40L14.5 5C14.5 3.61929 15.6193 2.5 17 2.5L31 2.5C32.3807 2.5 33.5 3.61929 33.5 5L33.5 40C33.5 41.3807 32.3807 42.5 31 42.5L17 42.5Z" stroke="#152C5B" stroke-width="3"/>
<path d="M33 15L15 15" stroke="#152C5B" stroke-width="3" stroke-linecap="round"/>
<line x1="18.5" y1="26.5" x2="18.5" y2="19.5" stroke="#FF498B" stroke-width="3" stroke-linecap="round"/>
<line x1="18.5" y1="10.5" x2="18.5" y2="7.5" stroke="#FF498B" stroke-width="3" stroke-linecap="round"/>
<line x1="28.5" y1="44.5" x2="28.5" y2="42.5" stroke="#152C5B" stroke-width="3" stroke-linecap="round"/>
<line x1="28.5" y1="44.5" x2="28.5" y2="42.5" stroke="#152C5B" stroke-width="3" stroke-linecap="round"/>
<line x1="28.5" y1="44.5" x2="28.5" y2="42.5" stroke="#152C5B" stroke-width="3" stroke-linecap="round"/>
<line x1="28.5" y1="44.5" x2="28.5" y2="42.5" stroke="#152C5B" stroke-width="3" stroke-linecap="round"/>
<line x1="19.5" y1="44.5" x2="19.5" y2="42.5" stroke="#152C5B" stroke-width="3" stroke-linecap="round"/>
<line x1="19.5" y1="44.5" x2="19.5" y2="42.5" stroke="#152C5B" stroke-width="3" stroke-linecap="round"/>
<line x1="19.5" y1="44.5" x2="19.5" y2="42.5" stroke="#152C5B" stroke-width="3" stroke-linecap="round"/>
<line x1="19.5" y1="44.5" x2="19.5" y2="42.5" stroke="#152C5B" stroke-width="3" stroke-linecap="round"/>
</svg>
