<svg width="48" height="48" viewBox="0 0 48 48" fill="none" xmlns="http://www.w3.org/2000/svg">
<rect width="48" height="48" fill="white"/>
<mask id="path-1-inside-1" fill="white">
<path d="M11 21C11 19.8954 11.8954 19 13 19H20C21.1046 19 22 19.8954 22 21V28H11V21Z"/>
</mask>
<path d="M11 21C11 19.8954 11.8954 19 13 19H20C21.1046 19 22 19.8954 22 21V28H11V21Z" stroke="#FF498B" stroke-width="6" mask="url(#path-1-inside-1)"/>
<mask id="path-2-inside-2" fill="white">
<path d="M25 21C25 19.8954 25.8954 19 27 19H34C35.1046 19 36 19.8954 36 21V28H25V21Z"/>
</mask>
<path d="M25 21C25 19.8954 25.8954 19 27 19H34C35.1046 19 36 19.8954 36 21V28H25V21Z" stroke="#FF498B" stroke-width="6" mask="url(#path-2-inside-2)"/>
<path d="M7.5 15C7.5 10.3056 11.3056 6.5 16 6.5H31C35.6944 6.5 39.5 10.3056 39.5 15V26.5H7.5V15Z" stroke="#152C5B" stroke-width="3"/>
<mask id="path-4-inside-3" fill="white">
<path d="M0 29C0 26.7909 1.79086 25 4 25H44C46.2091 25 48 26.7909 48 29V38C48 39.1046 47.1046 40 46 40H2C0.895431 40 0 39.1046 0 38V29Z"/>
</mask>
<path d="M0 29C0 26.7909 1.79086 25 4 25H44C46.2091 25 48 26.7909 48 29V38C48 39.1046 47.1046 40 46 40H2C0.895431 40 0 39.1046 0 38V29Z" stroke="#152C5B" stroke-width="6" mask="url(#path-4-inside-3)"/>
<path d="M6 43H42" stroke="#152C5B" stroke-width="3" stroke-linecap="round"/>
<line x1="5.5" y1="39.5" x2="5.5" y2="46.5" stroke="#152C5B" stroke-width="3" stroke-linecap="round"/>
<line x1="42.5" y1="39.5" x2="42.5" y2="46.5" stroke="#152C5B" stroke-width="3" stroke-linecap="round"/>
</svg>
