<svg width="48" height="48" viewBox="0 0 48 48" fill="none" xmlns="http://www.w3.org/2000/svg">
<rect width="48" height="48" fill="white"/>
<mask id="path-1-inside-1" fill="white">
<path fill-rule="evenodd" clip-rule="evenodd" d="M19.1873 7C18.4554 7 17.7819 7.39977 17.4315 8.0423L14.7273 13H8C3.58172 13 0 16.5817 0 21V33C0 37.4183 3.58172 41 8 41H40C44.4183 41 48 37.4183 48 33V21C48 16.5817 44.4183 13 40 13H34.2727L31.5685 8.0423C31.2181 7.39977 30.5446 7 29.8127 7H19.1873Z"/>
</mask>
<path d="M17.4315 8.0423L20.0652 9.47885L20.0652 9.47885L17.4315 8.0423ZM14.7273 13V16H16.5082L17.361 14.4366L14.7273 13ZM34.2727 13L31.639 14.4366L32.4918 16H34.2727V13ZM31.5685 8.0423L28.9348 9.47885L28.9348 9.47885L31.5685 8.0423ZM20.0652 9.47885C19.8899 9.80011 19.5532 10 19.1873 10V4C17.3575 4 15.674 4.99943 14.7978 6.60574L20.0652 9.47885ZM17.361 14.4366L20.0652 9.47885L14.7978 6.60574L12.0936 11.5634L17.361 14.4366ZM8 16H14.7273V10H8V16ZM3 21C3 18.2386 5.23858 16 8 16V10C1.92487 10 -3 14.9249 -3 21H3ZM3 33V21H-3V33H3ZM8 38C5.23858 38 3 35.7614 3 33H-3C-3 39.0751 1.92487 44 8 44V38ZM40 38H8V44H40V38ZM45 33C45 35.7614 42.7614 38 40 38V44C46.0751 44 51 39.0751 51 33H45ZM45 21V33H51V21H45ZM40 16C42.7614 16 45 18.2386 45 21H51C51 14.9249 46.0751 10 40 10V16ZM34.2727 16H40V10H34.2727V16ZM28.9348 9.47885L31.639 14.4366L36.9064 11.5634L34.2022 6.60574L28.9348 9.47885ZM29.8127 10C29.4468 10 29.1101 9.80012 28.9348 9.47885L34.2022 6.60574C33.326 4.99943 31.6425 4 29.8127 4V10ZM19.1873 10H29.8127V4H19.1873V10Z" fill="#152C5B" mask="url(#path-1-inside-1)"/>
<circle cx="24" cy="26" r="6.5" stroke="#FF498B" stroke-width="3"/>
<path d="M36 19H41" stroke="#152C5B" stroke-width="3" stroke-linecap="round"/>
</svg>
