<svg width="48" height="48" viewBox="0 0 48 48" fill="none" xmlns="http://www.w3.org/2000/svg">
<rect width="48" height="48" fill="white"/>
<path d="M12.7662 30.9954C13.5097 29.6236 14.6663 28.4299 16.1125 27.5033C18.2915 26.107 21.128 25.3169 24.1991 25.4367C27.2702 25.5564 30.0366 26.565 32.1003 28.1267C33.1338 28.9088 33.991 29.8295 34.6221 30.8469" stroke="#152C5B" stroke-width="3"/>
<path d="M9.69444 22.7342C10.6662 20.941 12.178 19.3808 14.0683 18.1696C16.9166 16.3445 20.6242 15.3118 24.6384 15.4683C28.6527 15.6248 32.2686 16.9431 34.9661 18.9844C36.317 20.0067 37.4375 21.2102 38.2624 22.54" stroke="#152C5B" stroke-width="3"/>
<path d="M5.62663 14.4875C6.81407 12.2964 8.66133 10.39 10.971 8.91001C14.4514 6.67994 18.9816 5.41805 23.8866 5.60931C28.7916 5.80056 33.2099 7.41137 36.506 9.90565C38.1565 11.1547 39.5257 12.6253 40.5337 14.2502" stroke="#152C5B" stroke-width="3"/>
<circle cx="24" cy="38" r="4.5" stroke="#FF498B" stroke-width="3"/>
</svg>
