<svg width="48" height="48" viewBox="0 0 48 48" fill="none" xmlns="http://www.w3.org/2000/svg">
<rect width="48" height="48" fill="white"/>
<path d="M23.5 38.5C23.5 39.8372 22.5888 41.304 20.5671 42.5171C18.5752 43.7122 15.7267 44.5 12.5 44.5C9.27334 44.5 6.42478 43.7122 4.43291 42.5171C2.41118 41.304 1.5 39.8372 1.5 38.5C1.5 37.1628 2.41118 35.696 4.43291 34.4829C6.42478 33.2878 9.27334 32.5 12.5 32.5C15.7267 32.5 18.5752 33.2878 20.5671 34.4829C22.5888 35.696 23.5 37.1628 23.5 38.5Z" stroke="#152C5B" stroke-width="3"/>
<path d="M23.5 11.3474C23.5 12.4701 23.194 14.7135 22.5903 17.5318C21.9941 20.3147 21.131 23.5501 20.0679 26.6185C18.9993 29.7031 17.7541 32.5432 16.4166 34.5826C15.7477 35.6026 15.0948 36.3614 14.4813 36.8523C13.8719 37.3399 13.3841 37.5 13 37.5C12.6159 37.5 12.1281 37.3399 11.5187 36.8523C10.9052 36.3614 10.2523 35.6026 9.58338 34.5826C8.24586 32.5432 7.00075 29.7031 5.93206 26.6185C4.86897 23.5501 4.00594 20.3147 3.40974 17.5318C2.80597 14.7135 2.5 12.4701 2.5 11.3474C2.5 7.34058 6.83064 3.5 13 3.5C19.1694 3.5 23.5 7.34058 23.5 11.3474Z" fill="white" stroke="#152C5B" stroke-width="3"/>
<circle cx="13" cy="13" r="4.5" stroke="#FF498B" stroke-width="3"/>
</svg>
