<svg width="48" height="48" viewBox="0 0 48 48" fill="none" xmlns="http://www.w3.org/2000/svg">
<rect width="48" height="48" fill="white"/>
<path d="M38.5 14.5V6.5C38.5 5.39543 37.6046 4.5 36.5 4.5V4.5C35.3954 4.5 34.5 5.39543 34.5 6.5V7" stroke="#FF498B" stroke-width="3" stroke-linecap="round"/>
<path d="M2.5 20C2.5 18.067 4.067 16.5 6 16.5H42C43.933 16.5 45.5 18.067 45.5 20V23C45.5 24.933 43.933 26.5 42 26.5H6C4.067 26.5 2.5 24.933 2.5 23V20Z" stroke="#152C5B" stroke-width="3"/>
<path d="M6.5 26.5H40.5V35C40.5 36.933 38.933 38.5 37 38.5H10C8.067 38.5 6.5 36.933 6.5 35V26.5Z" stroke="#152C5B" stroke-width="3"/>
<line x1="11.5" y1="39.5" x2="11.5" y2="40.5" stroke="#152C5B" stroke-width="3" stroke-linecap="round"/>
<line x1="36.5" y1="39.5" x2="36.5" y2="40.5" stroke="#152C5B" stroke-width="3" stroke-linecap="round"/>
</svg>
